<svg xmlns="http://www.w3.org/2000/svg" width="400" height="560" viewBox="0 0 400 560"><rect width="400" height="560" fill="#416e76"/><defs><pattern id="grain" width="7" height="7" patternUnits="userSpaceOnUse"><circle cx="2" cy="3" r=".7" fill="#d3e8c8" opacity=".12"/></pattern></defs><rect width="400" height="560" fill="url(#grain)"/><rect x="20" y="20" width="360" height="520" rx="2" fill="none" stroke="#d3e8c8" stroke-opacity=".4"/><text x="200" y="47" text-anchor="middle" fill="#d3e8c8" font-family="sans-serif" font-size="9" letter-spacing="4">ENTRE LÍNEAS · COLECCIÓN</text><text x="200" y="88" text-anchor="middle" fill="#d3e8c8" font-family="Georgia, serif" font-size="29">El viaje de Chihiro</text><circle cx="220" cy="300" r="68" fill="#d3e8c8" opacity=".8"/><circle cx="234" cy="278" r="65" fill="#416e76"/><path d="M0 475 L100 399 L170 431 L260 353 L400 475 V560 H0Z" fill="#d3e8c8" opacity=".35"/><path d="M0 500 L130 432 L208 470 L318 393 L400 462 V560 H0Z" fill="#d3e8c8" opacity=".3"/><path d="M200 450 Q150 350 205 325 Q255 390 200 450Z" fill="#416e76"/><path d="M200 440 V340" stroke="#d3e8c8" stroke-width="2"/><text x="200" y="517" text-anchor="middle" fill="#d3e8c8" font-family="sans-serif" font-size="11" letter-spacing="3">2001 · ANIMACIÓN</text></svg>